<?xml version="1.0" encoding="UTF-8"?>
<svg id="Layer_1" xmlns="http://www.w3.org/2000/svg" version="1.1" viewBox="0 0 3000 835">
  <!-- Generator: Adobe Illustrator 30.3.0, SVG Export Plug-In . SVG Version: 2.1.3 Build 182)  -->
  <defs>
    <style>
      .st0 {
        fill: #272826;
      }
    </style>
  </defs>
  <path class="st0" d="M0,19.028h145.22l246.168,419.724V19.028h115.114v612.761h-134.595L115.113,194.354v437.435H0V19.028Z"/>
  <path class="st0" d="M562.279,390.049c0-148.762,93.863-250.594,232-250.594s232,101.832,232,250.594c0,149.65-93.863,252.366-232,252.366s-232-102.717-232-252.366ZM902.308,389.164c0-103.605-41.618-170.015-108.03-170.015s-108.03,66.41-108.03,170.015c0,105.374,41.618,171.784,108.03,171.784s108.03-66.41,108.03-171.784Z"/>
  <path class="st0" d="M1097.111,516.676V224.461h-77.923v-74.383h79.694v-81.463l113.343-56.672v138.135h111.572v74.383h-111.572v270.077c0,55.783,39.847,72.61,105.374,45.16l9.74,88.548c-141.679,41.618-230.229-.885-230.229-111.57Z"/>
  <path class="st0" d="M1362.745,506.934c0-84.121,62.87-148.762,204.549-168.245l99.175-14.165v-22.138c0-54.014-34.535-87.663-85.894-87.663-53.129,0-91.205,31.876-108.915,87.663l-101.832-36.307c32.764-83.236,106.26-126.624,217.831-126.624,99.176,0,193.924,54.899,193.924,182.411v199.237c0,43.388,3.542,77.921,11.511,110.686h-110.687c-7.969-23.907-11.511-51.36-13.282-96.52-20.367,66.413-82.35,109.804-157.617,109.804-87.663,0-148.763-55.787-148.763-138.139ZM1549.584,560.948c67.296,0,112.456-70.84,116.885-169.13l-69.069,10.627c-79.693,12.399-115.998,46.045-115.998,92.978,0,39.845,26.565,65.525,68.183,65.525Z"/>
  <path class="st0" d="M1974.613,559.179v72.61h-113.343V.432h115.114v228.456c23.023-55.783,80.581-89.433,149.648-89.433,116.001,0,195.695,99.174,195.695,250.594s-78.809,254.136-197.466,254.136c-67.296,0-125.739-32.761-149.648-85.006ZM2200.415,390.934c0-104.486-43.389-170.899-111.572-170.899-69.069,0-112.459,66.413-112.459,170.899,0,105.374,42.505,171.788,110.687,171.788,69.068,0,113.343-66.413,113.343-171.788Z"/>
  <path class="st0" d="M2375.728.432h115.114v631.357h-115.114V.432Z"/>
  <path class="st0" d="M2627.206,734.505c42.505,0,70.84-21.25,82.352-61.983l10.627-33.649-177.986-489.679h122.199l117.77,351.541,107.145-351.541h110.687l-188.61,575.573c-23.023,69.952-84.123,109.801-159.39,109.801-33.647,0-69.954-7.969-107.144-24.795l9.74-91.205c27.449,10.627,51.358,15.938,72.61,15.938Z"/>
</svg>