<?xml version="1.0" encoding="UTF-8"?>
<svg id="Layer_1" xmlns="http://www.w3.org/2000/svg" version="1.1" viewBox="0 0 3000 3028">
  <!-- Generator: Adobe Illustrator 30.0.0, SVG Export Plug-In . SVG Version: 2.1.1 Build 123)  -->
  <defs>
    <style>
      .st0 {
        fill: #272826;
      }

      .st1 {
        fill: #f8f2a8;
      }
    </style>
  </defs>
  <rect class="st1" width="3000" height="3028" rx="285.4" ry="285.4"/>
  <g>
    <polygon class="st0" points="290.2 290.2 290.2 395 290.2 488.1 1057 488.1 1057 395 2159.9 395 2159.9 488.1 2709.8 488.1 2709.8 395 2709.8 290.2 290.2 290.2"/>
    <polygon class="st0" points="1943 2633 840.1 2633 840.1 2539.9 290.2 2539.9 290.2 2633 290.2 2737.8 2709.8 2737.8 2709.8 2633 2709.8 2539.9 1943 2539.9 1943 2633"/>
    <polygon class="st0" points="1739.1 2340.1 290.2 2340.1 290.2 2445 2709.8 2445 2709.8 2340.1 2709.8 2247 1739.1 2247 1739.1 2340.1"/>
    <polygon class="st0" points="1532.4 2047.3 290.2 2047.3 290.2 2152.1 290.2 2245.2 840.1 2245.2 840.1 2152.1 2709.8 2152.1 2709.8 2047.3 2709.8 1954.2 1532.4 1954.2 1532.4 2047.3"/>
    <polygon class="st0" points="1326.6 1754.4 290.2 1754.4 290.2 1859.3 290.2 1952.4 840.1 1952.4 840.1 1859.3 2709.8 1859.3 2709.8 1754.4 2709.8 1661.3 1326.6 1661.3 1326.6 1754.4"/>
    <polygon class="st0" points="2159.9 875.9 290.2 875.9 290.2 980.7 290.2 1073.8 1467.6 1073.8 1467.6 980.7 2709.8 980.7 2709.8 875.9 2709.8 782.8 2159.9 782.8 2159.9 875.9"/>
    <polygon class="st0" points="2159.9 1168.7 290.2 1168.7 290.2 1273.6 290.2 1366.7 1673.4 1366.7 1673.4 1273.6 2709.8 1273.6 2709.8 1168.7 2709.8 1075.6 2159.9 1075.6 2159.9 1168.7"/>
    <polygon class="st0" points="2159.9 1461.6 290.2 1461.6 290.2 1566.4 290.2 1659.5 840.1 1659.5 840.1 1566.4 2709.8 1566.4 2709.8 1461.6 2709.8 1368.5 2159.9 1368.5 2159.9 1461.6"/>
    <polygon class="st0" points="290.2 687.9 290.2 781 1260.9 781 1260.9 687.9 2709.8 687.9 2709.8 583 290.2 583 290.2 687.9"/>
  </g>
</svg>